<svg xmlns="http://www.w3.org/2000/svg" xmlns:xlink="http://www.w3.org/1999/xlink" version="1.1" viewBox="0 0 96 120" x="0px" y="0px"><path d="M14 26c-1.104 0-2-0.892-2-2v-10c0-1.104 0.896-2 2-2h10c1.104 0 2 0.896 2 2s-0.896 2-2 2h-8v8c0 1.108-0.896 2-2 2z" fill="#000000"/><path d="M82 26c-1.1 0-2-0.892-2-2v-8h-8c-1.1 0-2-0.896-2-2s0.9-2 2-2h10c1.1 0 2 0.896 2 2v10c0 1.108-0.9 2-2 2z" fill="#000000"/><path d="M80 82c-0.512 0-1.024-0.196-1.416-0.584l-64-64c-0.78-0.78-0.78-2.048 0-2.832s2.048-0.78 2.828 0l64 64c0.776 0.776 0.776 2.048 0 2.828-0.388 0.392-0.9 0.588-1.412 0.588z" fill="#000000"/><path d="M82 84h-10c-1.1 0-2-0.9-2-2s0.9-2 2-2h8v-8c0-1.108 0.9-2 2-2s2 0.892 2 2v10c0 1.1-0.9 2-2 2z" fill="#000000"/><path d="M16 82c-0.512 0-1.024-0.196-1.416-0.584-0.78-0.776-0.78-2.048 0-2.828l64-64c0.776-0.78 2.048-0.78 2.828 0 0.776 0.78 0.776 2.048 0 2.832l-64 64c-0.388 0.384-0.9 0.58-1.412 0.58z" fill="#000000"/><path d="M24 84h-10c-1.104 0-2-0.9-2-2v-10c0-1.108 0.896-2 2-2s2 0.892 2 2v8h8c1.104 0 2 0.9 2 2s-0.896 2-2 2z" fill="#000000"/><path d="M82 96h-68c-7.72 0-14-6.28-14-14v-68c0-7.716 6.28-14 14-14h68c7.72 0 14 6.284 14 14v68c0 7.72-6.28 14-14 14zM14 4c-5.512 0-10 4.488-10 10v68c0 5.512 4.488 10 10 10h68c5.512 0 10-4.488 10-10v-68c0-5.512-4.488-10-10-10h-68z" fill="#000000"/><text x="0" y="111" fill="#000000" font-size="5px" font-weight="bold" font-family="'Helvetica Neue', Helvetica, Arial-Unicode, Arial, Sans-serif">Created by iconsmind.com</text><text x="0" y="116" fill="#000000" font-size="5px" font-weight="bold" font-family="'Helvetica Neue', Helvetica, Arial-Unicode, Arial, Sans-serif">from the Noun Project</text></svg>